<svg xmlns="http://www.w3.org/2000/svg" width="740" height="680" viewBox="0 0 740 680">
  <g id="Grupo_1" data-name="Grupo 1" transform="translate(-1052 -200)">
    <g id="Scene_Wireframe" data-name="Scene/Wireframe" transform="translate(1052 200)">
      <path id="Twisted_Leaf" data-name="Twisted Leaf" d="M102.225,1.334A7.414,7.414,0,0,0,99.838.692,38.719,38.719,0,0,0,92.374,0,137.709,137.709,0,0,0,69.3,2.074c-4.8.83-10.61,3.622-15.388,2.106-8.324-2.642-16.738-2.512-24.635,1.26-7.221,3.449-12.7,10-15.9,17.078a43.407,43.407,0,0,0-2.995,7.652c-.237.542-.465,1.088-.67,1.642-.582,1.573-1.1,3.173-1.59,4.777-.207.684-.729,2.194-.11,2.486a45.46,45.46,0,0,0-2.6,5.652C3.286,50.378.962,56.578.215,62.568a27.912,27.912,0,0,0-.03,6.671c.127,1.1.074,3.307.819,4.142,1.58,1.772,2.392-.709,2.214-1.89C1.858,62.485,4.485,54.027,7.6,45.561a53.276,53.276,0,0,1,9.027-15.019,37.906,37.906,0,0,1,10.328-9,161.472,161.472,0,0,1,15.728-7.8c3.5-1.588,7.009-3.134,10.61-4.5a10.575,10.575,0,0,1,2.948-1.088c1.877-.007,4.537,1.379,6.351,1.894,5.964,1.7,12,3.867,18.168,4.733A23.43,23.43,0,0,0,92.113,13.4a10.628,10.628,0,0,0,1.787-.974,25.936,25.936,0,0,0,7.6-4.3,30.324,30.324,0,0,0,3.563-3.839,2.011,2.011,0,0,0,.47-1.264c.244-.128.406-.277.443-.451.269-1.286-2.184-1.31-3.754-1.233" transform="translate(588 194)" fill="#89c5cc"/>
      <path id="Fill_16" data-name="Fill 16" d="M11.933,0C9.99,0,8.054.039,6.115.139,4.636.216,2.377-.089,1.126.828c-1.3.953-1.21,2.9-1.007,4.28,1.073,7.282,3.693,13.739,9.174,18.9,8.439,7.944,18.113,11.981,29.561,13.778,8.042,1.263,15.465-.491,21.385-6.181a88.518,88.518,0,0,1,9.253,25.752,61.405,61.405,0,0,1,.917,13.236c-.092,2.872-.251,5.736-.56,8.594-.134,1.242-.77,3.122-.282,4.3a1.974,1.974,0,0,0,3.375.336c.722-.978.59-2.9.738-4.056.246-1.923.474-3.847.637-5.778.265-3.126.46-6.262.446-9.4A69.774,69.774,0,0,0,71,43.758C66.865,30.916,60.158,19.5,49.726,10.55,43.311,5.043,35.97,2.814,27.641,1.617A111.241,111.241,0,0,0,11.933,0" transform="translate(56 310.05) rotate(-39)" fill="#dde3e9"/>
      <path id="Leaf" d="M81.472,180.815c-1.575-12.542-3.242-25.012-6.294-37.31-1.8-7.247-4.1-14.342-6.2-21.506q.282,1.348.5,2.71c-.729-2.137-2.25-4.181-3.126-6.31-.976-2.375-1.761-4.842-2.507-7.294-1.456-4.786-2.83-9.58-4.468-14.311-1.826-5.271-3.928-10.454-5.887-15.679A127.246,127.246,0,0,0,48.105,67.8c-1.18-2.306-2.237-4.784-3.4-7.135-.388-.787-3.714-9.576-3.689-9.576.55,0,2.613,3.907,2.954,4.481,1,1.676,1.847,3.421,2.7,5.168a23.014,23.014,0,0,1,1.88-6.015c.285-.589,2.285-4.932,2.936-4.932.325,0-2.681,8.2-3.061,8.922a14.855,14.855,0,0,0-1.088,1.949c-.325,1-.158.754.111,1.66A47.616,47.616,0,0,0,49.724,67.2a34.728,34.728,0,0,0,2.205,5.126C54.252,76.868,55.9,82.4,57.671,87.3a32.055,32.055,0,0,1,1.949-6.988c.216-.538,1.934-5.525,2.429-5.525.557,0-1.576,7.988-1.865,8.678-.538,1.282-1.384,2.522-1.832,3.827-.491,1.432.372,2.721.921,4.185,2.022,5.388,3.794,10.83,5.414,16.345,9.406-4.12,11.276-16.244,11.89-25.185A62.468,62.468,0,0,0,74.458,63.38c-2.087-8.343-5.6-16.4-9.324-24.151A86.4,86.4,0,0,0,47.626,15.05,92.388,92.388,0,0,0,35.22,5.139a26.4,26.4,0,0,0-6.8-3.5A24.612,24.612,0,0,0,24.995.8C24.112.644,22.311-.175,21.58.034,15.6,1.687,11.112,4.437,7.63,9.548a44.722,44.722,0,0,0-6.48,16.3A51.867,51.867,0,0,0,.665,44.9,117.757,117.757,0,0,0,4.357,59.215c5.095,16.753,14.025,34.713,30.05,43.9a48.771,48.771,0,0,0,16.85,5.636c1.392.217,2.783.424,4.192.5.95.054,4.072-.577,4.76-.167.942.561,1.483,3.746,1.894,4.9,3.12,8.777,5.91,17.653,8.442,26.608,2.693,9.528,4.833,19.148,6.615,28.876.758,4.138,1.5,8.268,2.125,12.428.147.968,0,4.012.94,4.867a1.139,1.139,0,0,0,1.8-.343c.618-1.151-.389-4.328-.55-5.612" transform="matrix(0.799, -0.602, 0.602, 0.799, 1, 171.481)" fill="#c1dee2"/>
      <path id="Fill_10" data-name="Fill 10" d="M85.98.66A47.063,47.063,0,0,0,75.329.033,66.182,66.182,0,0,0,26.489,23.2c-10.138,12-12.926,26.92-14.928,42-.2,1.5-.284,2.985-.4,4.486-.024.322-.06.609-.1.88A1.937,1.937,0,0,0,10.332,73,100.261,100.261,0,0,0,5.869,84.706C2.162,96.526-1.608,108.571.714,121a173.656,173.656,0,0,1,3.049-20.562c.079-.386.163-.769.252-1.151.009-.04.017-.081.027-.121a44.965,44.965,0,0,1,1.875-6.026c.008-.022.016-.043.024-.064.1-.259.208-.516.314-.774.219-.533.444-1.065.682-1.594q.121-.27.232-.546c1.112-2.726,1.582-5.8,2.578-8.618q.358-.962.749-1.916l.047-.112c.706-1.71,1.485-3.4,2.31-5.071a6.244,6.244,0,0,0,1.074-1.931,12.073,12.073,0,0,0,.891-1.722q.728-1.409,1.458-2.816l-.044.016q.734-1.35,1.467-2.689l.323-.589.524-.938c1.632-2.921,3.363-5.783,5.16-8.61.641-1.009,2.174-2.455,2.468-3.588.011-.042.013-.081.02-.122A64.29,64.29,0,0,1,39.967,36.924c-.651.7-2.034,3.091-2.4,3.564-1.119,1.447-2.334,2.795-3.554,4.158A88.517,88.517,0,0,0,27.8,52.274,144.959,144.959,0,0,0,18.519,67.51c-.027.031-.056.06-.082.091C17.017,69.352,16.123,72,15.1,74c4.046-1.874,8.521-3.1,12.674-4.759a104.134,104.134,0,0,0,12.059-5.676A134.574,134.574,0,0,0,55.25,53.743,61.078,61.078,0,0,0,69.7,40.477c4.912-5.934,9.414-11.919,12.2-19.124a57.426,57.426,0,0,0,3.082-10.967c.028-.163.064-.339.1-.523a35.925,35.925,0,0,0,1.726-3.958c.778-2.14,2.614-4.494-.83-5.246" transform="translate(595 231)" fill="#69a1ac"/>
      <path id="Leave_the_Leaf_" data-name="Leave the Leaf!" d="M-1.323,82c.221,0,.463-.17.72-.5.593-.772.118-3.281-.138-4.629-.046-.24-.085-.447-.107-.587a29,29,0,0,0-.767-3.508,101.182,101.182,0,0,0-3.734-10.3c-.511-1.255-1.046-2.555-1.59-3.866-.1-.244-.188-.423-.258-.568-.25-.519-.25-.519.258-1.073l.09-.1a7.037,7.037,0,0,1,.925-.8,8.618,8.618,0,0,0,.778-.647A17.431,17.431,0,0,0-.892,48.375a17.684,17.684,0,0,0,.77-7.707A30.3,30.3,0,0,0-2.1,33.112,60.645,60.645,0,0,0-8.252,21.224a54.813,54.813,0,0,0-8.732-10.263c-3.551-3.223-8.292-6-14.5-8.479A30.708,30.708,0,0,0-40.75.313C-41.2.282-41.657.266-42.121.266a25.156,25.156,0,0,0-3.079.2c-.289.036-.591.095-.883.152a9.077,9.077,0,0,1-1.252.186l-.2.011c-.139.008-.247.014-.342.014-.384,0-.535-.111-1.018-.586A.7.7,0,0,0-49.354,0a.416.416,0,0,0-.374.319,1.144,1.144,0,0,0,.314,1.2,8.554,8.554,0,0,0-3.918,3.464A12.334,12.334,0,0,0-54.87,9.91,35.6,35.6,0,0,0-54.025,20.5,48.528,48.528,0,0,0-50.6,31.063a55.578,55.578,0,0,0,5.532,9.453,79.906,79.906,0,0,0,15.64,15.85,22.847,22.847,0,0,0,10.506,4.8,12.244,12.244,0,0,0,2,.166,13.419,13.419,0,0,0,4.2-.7c.105-.035.24-.074.4-.119.64-.185,1.607-.464,1.846-.863.214-.359.016-.669-.235-1.062-.074-.116-.15-.235-.222-.366q-.415-.753-.828-1.506c-.727-1.324-1.479-2.694-2.232-4.032-.119-.212-.245-.49-.378-.786a5.134,5.134,0,0,0-1.147-1.863.707.707,0,0,0-.19-.018,1.483,1.483,0,0,1-.6-.1c-.127-.081-.147-.311-.161-.463-.007-.077-.012-.137-.029-.147a6.522,6.522,0,0,0-2.274-.522c-.383-.045-.745-.087-1.031-.148-.789-.169-1.719-.38-2.638-.667a29.266,29.266,0,0,1-2.769-1.028c-.192-.082-.469-.241-.762-.41a5.243,5.243,0,0,0-1.552-.712A25.35,25.35,0,0,1-21.6,46.879a23.094,23.094,0,0,1,3.091,1.076c.121.052.322.163.554.292a5.139,5.139,0,0,0,1.62.7.264.264,0,0,0,.135-.03,60.263,60.263,0,0,0-4.122-5.869c-.768-.971-1.581-2.019-2.314-3.1-.047-.07-.164-.28-.311-.545a8.135,8.135,0,0,0-1.29-1.982c.468,0,1.484,1.1,2.092,1.75.176.19.328.353.424.445A28.275,28.275,0,0,1-19.488,42a54.1,54.1,0,0,1,3.313,4.492c1.468,2.193,2.757,4.479,3.953,6.634.275.5.572,1,.859,1.5a29.671,29.671,0,0,1,2.141,4.152.252.252,0,0,1,.149-.063c.16,0,.236.258.31.507a2.663,2.663,0,0,0,.084.254c.388.931.767,1.842,1.14,2.749.787,1.915,1.416,3.5,1.981,4.977l.03.079c.662,1.736,1.347,3.531,1.9,5.332a30.508,30.508,0,0,1,1.138,5.17c.088.7.149,1.406.182,2.1C-2.284,80.446-2,82-1.323,82ZM-4.54,49.348a18.932,18.932,0,0,1-3,5c.7-1.036,1.3-1.987,1.843-2.907.123-.208.356-.643.583-1.064C-4.831,49.853-4.565,49.358-4.54,49.348ZM-17.9,34.774c.318,0,.658,2.847.693,3.32a13.873,13.873,0,0,1-.547,4.673l0,.007,0-.007a17.9,17.9,0,0,0-.142-2.243c-.2-2.234-.472-5.294-.1-5.7A.125.125,0,0,1-17.9,34.774Z" transform="matrix(0.53, -0.848, 0.848, 0.53, 76.146, 219)" fill="#89c5cc"/>
      <g id="Background_Shape_2" data-name="Background Shape 2" transform="translate(39 358)" opacity="0.6">
        <path id="Background_Shape" data-name="Background Shape" d="M661.711,146.152c9.65,65.324-224.374,107.932-425.8,78.2S-57.928,78.493,38.191,16.62,652.061,80.828,661.711,146.152Z" fill="#dde3e9"/>
      </g>
      <g id="Mobile3" transform="translate(138 76)">
        <rect id="Container" width="159" height="302" rx="8" fill="#f2f2f2"/>
        <circle id="Touch" cx="15" cy="15" r="15" transform="translate(64 253)" fill="#fff"/>
        <g id="Camera" transform="translate(64 16)">
          <circle id="Lens" cx="2" cy="2" r="2" fill="#fff"/>
          <rect id="Sensor" width="21" height="4" rx="2" transform="translate(9)" fill="#fff"/>
        </g>
        <g id="Rows" transform="translate(14 28)">
          <g id="Row">
            <rect id="Background" width="131" height="54" rx="4" fill="#fff"/>
            <g id="Text" transform="translate(39 16.2)">
              <rect id="Name" width="73" height="8.1" rx="3" fill="#dde3e9"/>
              <rect id="Name-2" data-name="Name" width="49" height="8.1" rx="3" transform="translate(0 13.5)" fill="#dde3e9"/>
            </g>
            <circle id="Avatar" cx="12" cy="12" r="12" transform="translate(9 15)" fill="#c5cfd6"/>
          </g>
          <g id="Row-2" data-name="Row" transform="translate(0 62)">
            <rect id="Background-2" data-name="Background" width="131" height="42" rx="4" fill="#fff"/>
            <g id="Text-2" data-name="Text" transform="translate(39 12.6)">
              <rect id="Name-3" data-name="Name" width="73" height="6.3" rx="3" fill="#dde3e9"/>
              <rect id="Name-4" data-name="Name" width="49" height="6.3" rx="3" transform="translate(0 10.5)" fill="#dde3e9"/>
            </g>
            <circle id="Avatar-2" data-name="Avatar" cx="12" cy="12" r="12" transform="translate(9 9)" fill="#c5cfd6"/>
          </g>
          <g id="Row-3" data-name="Row" transform="translate(0 112)">
            <rect id="Background-3" data-name="Background" width="131" height="42" rx="4" fill="#fff"/>
            <g id="Text-3" data-name="Text" transform="translate(39 12.6)">
              <rect id="Name-5" data-name="Name" width="73" height="6.3" rx="3" fill="#dde3e9"/>
              <rect id="Name-6" data-name="Name" width="49" height="6.3" rx="3" transform="translate(0 10.5)" fill="#dde3e9"/>
            </g>
            <circle id="Avatar-3" data-name="Avatar" cx="12" cy="12" r="12" transform="translate(9 9)" fill="#afb9c5"/>
          </g>
          <g id="Row-4" data-name="Row" transform="translate(0 162)">
            <rect id="Background-4" data-name="Background" width="131" height="42" rx="4" fill="#fff"/>
            <g id="Text-4" data-name="Text" transform="translate(39 12.6)">
              <rect id="Name-7" data-name="Name" width="73" height="6.3" rx="3" fill="#dde3e9"/>
              <rect id="Name-8" data-name="Name" width="49" height="6.3" rx="3" transform="translate(0 10.5)" fill="#dde3e9"/>
            </g>
            <circle id="Avatar-4" data-name="Avatar" cx="12" cy="12" r="12" transform="translate(9 9)" fill="#c5cfd6"/>
          </g>
        </g>
      </g>
      <g id="Mobile3-2" data-name="Mobile3" transform="translate(156 102)">
        <g id="Group" transform="translate(0 218)">
          <path id="Fill_16-2" data-name="Fill 16" d="M8.14,0C6.815,0,5.494.027,4.171.1,3.162.148,1.621-.061.768.568-.119,1.221-.058,2.557.081,3.5.813,8.493,2.6,12.919,6.339,16.456,12.1,21.9,18.695,24.668,26.5,25.9c5.486.866,10.55-.336,14.588-4.237A60.868,60.868,0,0,1,47.4,39.315a42.292,42.292,0,0,1,.626,9.073c-.063,1.968-.171,3.932-.382,5.891-.091.851-.526,2.14-.192,2.944a1.343,1.343,0,0,0,2.3.231c.493-.67.4-1.987.5-2.78.168-1.318.323-2.637.434-3.961.181-2.143.314-4.292.3-6.444a48.036,48.036,0,0,0-2.567-14.274c-2.82-8.8-7.4-16.625-14.512-22.763-4.376-3.774-9.383-5.3-15.065-6.123A75.529,75.529,0,0,0,8.14,0" transform="translate(4)" fill="#89c5cc"/>
          <path id="Fill_18" data-name="Fill 18" d="M32.571,0C18.272,0,8.642,11.524,4.089,23.5c-1.716,4.515-2.119,9.472-2.78,14.213-.212,1.521-.134,3.839-.751,5.195-.224.491-.738.668-.492,1.338a1.086,1.086,0,0,0,.879.734c.9.166,2.171-.814,2.942-1.2,6.4-3.208,10.6-8.168,14.027-14.236a60.584,60.584,0,0,0,5.544-11.8,40.769,40.769,0,0,0,1.484-7.8,29.682,29.682,0,0,0,.2-3.122,6.3,6.3,0,0,0-.829-2.468c4.771-1.806,10.156-2.3,14.989-.427a19.209,19.209,0,0,1,10.262,9.279,17.7,17.7,0,0,1,1.26,3.42A11.772,11.772,0,0,0,51.4,19.1c.893,1.687,2.771.559,2.59-1.011A20.315,20.315,0,0,0,47.775,6.263,22.349,22.349,0,0,0,32.571,0" transform="translate(0 35)" fill="#89c5cc"/>
        </g>
        <rect id="Container-2" data-name="Container" width="159" height="302" rx="8" transform="translate(48)" fill="#dde3e9"/>
        <circle id="Touch-2" data-name="Touch" cx="15" cy="15" r="15" transform="translate(112 253)" fill="#fff"/>
        <g id="Camera-2" data-name="Camera" transform="translate(112 16)">
          <circle id="Lens-2" data-name="Lens" cx="2" cy="2" r="2" fill="#fff"/>
          <rect id="Sensor-2" data-name="Sensor" width="21" height="4" rx="2" transform="translate(9)" fill="#fff"/>
        </g>
        <g id="Rows-2" data-name="Rows" transform="translate(62 28)">
          <g id="Row-5" data-name="Row">
            <rect id="Container-3" data-name="Container" width="131" height="54" rx="4" fill="#fff"/>
            <g id="Text_Stuff" data-name="Text Stuff" transform="translate(9 16.2)">
              <rect id="Label" width="73" height="8.1" rx="3" fill="#dde3e9"/>
              <rect id="Label-2" data-name="Label" width="49" height="8.1" rx="3" transform="translate(0 13.5)" fill="#dde3e9"/>
            </g>
            <g id="Check" transform="translate(110 20)">
              <circle id="Background-5" data-name="Background" cx="7" cy="7" r="7" fill="#dde3e9"/>
              <circle id="Indicator" cx="3" cy="3" r="3" transform="translate(4 4)" fill="#f2f2f2"/>
            </g>
          </g>
          <g id="Row-6" data-name="Row" transform="translate(0 62)">
            <rect id="Background-6" data-name="Background" width="131" height="42" rx="4" fill="#fff"/>
            <g id="Text-5" data-name="Text" transform="translate(39 12.6)">
              <rect id="Name-9" data-name="Name" width="73" height="6.3" rx="3" fill="#dde3e9"/>
              <rect id="Name-10" data-name="Name" width="49" height="6.3" rx="3" transform="translate(0 10.5)" fill="#dde3e9"/>
            </g>
            <circle id="Avatar-5" data-name="Avatar" cx="12" cy="12" r="12" transform="translate(9 9)" fill="#c5cfd6"/>
          </g>
          <g id="Row-7" data-name="Row" transform="translate(0 112)">
            <rect id="Container-4" data-name="Container" width="131" height="42" rx="4" fill="#fff"/>
            <g id="Text_Stuff-2" data-name="Text Stuff" transform="translate(9 12.6)">
              <rect id="Label-3" data-name="Label" width="73" height="6.3" rx="3" fill="#dde3e9"/>
              <rect id="Label-4" data-name="Label" width="49" height="6.3" rx="3" transform="translate(0 10.5)" fill="#afb9c5"/>
            </g>
            <g id="Check-2" data-name="Check" transform="translate(110 14)">
              <circle id="Background-7" data-name="Background" cx="7" cy="7" r="7" fill="#dde3e9"/>
              <circle id="Indicator-2" data-name="Indicator" cx="3" cy="3" r="3" transform="translate(4 4)" fill="#f2f2f2"/>
            </g>
          </g>
          <g id="Row-8" data-name="Row" transform="translate(0 162)">
            <rect id="Background-8" data-name="Background" width="131" height="42" rx="4" fill="#fff"/>
            <g id="Text-6" data-name="Text" transform="translate(39 12.6)">
              <rect id="Name-11" data-name="Name" width="73" height="6.3" rx="3" fill="#dde3e9"/>
              <rect id="Name-12" data-name="Name" width="49" height="6.3" rx="3" transform="translate(0 10.5)" fill="#dde3e9"/>
            </g>
            <circle id="Avatar-6" data-name="Avatar" cx="12" cy="12" r="12" transform="translate(9 9)" fill="#c5cfd6"/>
          </g>
        </g>
      </g>
      <g id="Web" transform="translate(270 127)">
        <rect id="Container-5" data-name="Container" width="335" height="346" rx="8" fill="#f2f2f2"/>
        <rect id="Background-9" data-name="Background" width="70" height="81" rx="8" transform="translate(249 43)" fill="#fff"/>
        <g id="Profile_Info" data-name="Profile Info" transform="translate(259 58)">
          <circle id="Avatar-7" data-name="Avatar" cx="16" cy="16" r="16" transform="translate(9)" fill="#dde3e9"/>
          <rect id="Name-13" data-name="Name" width="50" height="6" rx="3" transform="translate(0 36)" fill="#dde3e9"/>
          <rect id="Name-14" data-name="Name" width="34" height="6" rx="3" transform="translate(8 46)" fill="#dde3e9"/>
        </g>
        <path id="Header" d="M8,0H327a8,8,0,0,1,8,8V27a0,0,0,0,1,0,0H0a0,0,0,0,1,0,0V8A8,8,0,0,1,8,0Z" fill="#c5cfd6"/>
        <g id="Buttons" transform="translate(9 10)">
          <circle id="buttons-2" data-name="buttons" cx="4" cy="4" r="4" fill="#f2f2f2"/>
          <circle id="buttons-3" data-name="buttons" cx="4" cy="4" r="4" transform="translate(12)" fill="#f2f2f2"/>
          <circle id="buttons-4" data-name="buttons" cx="4" cy="4" r="4" transform="translate(24)" fill="#f2f2f2"/>
        </g>
        <g id="Components" transform="translate(249 132)">
          <rect id="Background-10" data-name="Background" width="70" height="194" rx="8" fill="#fff"/>
          <g id="Rows-3" data-name="Rows" transform="translate(18 18)">
            <rect id="Data" width="34" height="26" rx="4" fill="#dde3e9"/>
            <rect id="Data-2" data-name="Data" width="34" height="25" rx="4" transform="translate(0 34)" fill="#afb9c5"/>
            <rect id="Data-3" data-name="Data" width="34" height="25" rx="4" transform="translate(0 67)" fill="#dde3e9"/>
            <rect id="Data-4" data-name="Data" width="34" height="25" rx="4" transform="translate(0 133)" fill="#dde3e9"/>
            <rect id="Data-5" data-name="Data" width="34" height="25" rx="4" transform="translate(0 100)" fill="#c5cfd6"/>
          </g>
        </g>
        <g id="Rows-4" data-name="Rows" transform="translate(16 44)">
          <g id="Row-9" data-name="Row">
            <rect id="Container-6" data-name="Container" width="225" height="47" rx="4" fill="#fff"/>
            <g id="Text_Stuff-3" data-name="Text Stuff" transform="translate(9 14.1)">
              <rect id="Label-5" data-name="Label" width="167" height="7.05" rx="3" fill="#dde3e9"/>
              <rect id="Label-6" data-name="Label" width="112.096" height="7.05" rx="3" transform="translate(0 11.75)" fill="#dde3e9"/>
            </g>
            <g id="Check-3" data-name="Check" transform="translate(193.954 16.5)">
              <circle id="Background-11" data-name="Background" cx="7" cy="7" r="7" fill="#dde3e9"/>
              <circle id="Indicator-3" data-name="Indicator" cx="3" cy="3" r="3" transform="translate(4 4)" fill="#f2f2f2"/>
            </g>
          </g>
          <g id="Row-10" data-name="Row" transform="translate(0 55)">
            <rect id="Container-7" data-name="Container" width="225" height="39" rx="4" fill="#fff"/>
            <g id="Text_Stuff-4" data-name="Text Stuff" transform="translate(9 11.7)">
              <rect id="Label-7" data-name="Label" width="167" height="5.85" rx="2.925" fill="#dde3e9"/>
              <rect id="Label-8" data-name="Label" width="112.096" height="5.85" rx="2.925" transform="translate(0 9.75)" fill="#dde3e9"/>
            </g>
            <g id="Check-4" data-name="Check" transform="translate(193.954 12.5)">
              <circle id="Background-12" data-name="Background" cx="7" cy="7" r="7" fill="#dde3e9"/>
              <circle id="Indicator-4" data-name="Indicator" cx="3" cy="3" r="3" transform="translate(4 4)" fill="#f2f2f2"/>
            </g>
          </g>
          <g id="Row-11" data-name="Row" transform="translate(0 102)">
            <rect id="Container-8" data-name="Container" width="225" height="39" rx="4" fill="#fff"/>
            <g id="Text_Stuff-5" data-name="Text Stuff" transform="translate(9 11.7)">
              <rect id="Label-9" data-name="Label" width="167" height="5.85" rx="2.925" fill="#dde3e9"/>
              <rect id="Label-10" data-name="Label" width="112.096" height="5.85" rx="2.925" transform="translate(0 9.75)" fill="#dde3e9"/>
            </g>
            <g id="Check-5" data-name="Check" transform="translate(193.954 12.5)">
              <circle id="Background-13" data-name="Background" cx="7" cy="7" r="7" fill="#dde3e9"/>
              <circle id="Indicator-5" data-name="Indicator" cx="3" cy="3" r="3" transform="translate(4 4)" fill="#afb9c5"/>
            </g>
          </g>
          <g id="Row-12" data-name="Row" transform="translate(0 243)">
            <rect id="Container-9" data-name="Container" width="225" height="39" rx="4" fill="#fff"/>
            <g id="Text_Stuff-6" data-name="Text Stuff" transform="translate(9 11.7)">
              <rect id="Label-11" data-name="Label" width="167" height="5.85" rx="2.925" fill="#dde3e9"/>
              <rect id="Label-12" data-name="Label" width="112.096" height="5.85" rx="2.925" transform="translate(0 9.75)" fill="#dde3e9"/>
            </g>
            <g id="Check-6" data-name="Check" transform="translate(193.954 12.5)">
              <circle id="Background-14" data-name="Background" cx="7" cy="7" r="7" fill="#dde3e9"/>
              <circle id="Indicator-6" data-name="Indicator" cx="3" cy="3" r="3" transform="translate(4 4)" fill="#f2f2f2"/>
            </g>
          </g>
          <g id="Row-13" data-name="Row" transform="translate(0 196)">
            <rect id="Container-10" data-name="Container" width="225" height="39" rx="4" fill="#fff"/>
            <g id="Text_Stuff-7" data-name="Text Stuff" transform="translate(9 11.7)">
              <rect id="Label-13" data-name="Label" width="167" height="5.85" rx="2.925" fill="#dde3e9"/>
              <rect id="Label-14" data-name="Label" width="112.096" height="5.85" rx="2.925" transform="translate(0 9.75)" fill="#dde3e9"/>
            </g>
            <g id="Check-7" data-name="Check" transform="translate(193.954 12.5)">
              <circle id="Background-15" data-name="Background" cx="7" cy="7" r="7" fill="#dde3e9"/>
              <circle id="Indicator-7" data-name="Indicator" cx="3" cy="3" r="3" transform="translate(4 4)" fill="#f2f2f2"/>
            </g>
          </g>
          <g id="Row-14" data-name="Row" transform="translate(0 149)">
            <rect id="Container-11" data-name="Container" width="225" height="39" rx="4" fill="#fff"/>
            <g id="Text_Stuff-8" data-name="Text Stuff" transform="translate(9 11.7)">
              <rect id="Label-15" data-name="Label" width="167" height="5.85" rx="2.925" fill="#dde3e9"/>
              <rect id="Label-16" data-name="Label" width="112.096" height="5.85" rx="2.925" transform="translate(0 9.75)" fill="#dde3e9"/>
            </g>
            <g id="Check-8" data-name="Check" transform="translate(193.954 12.5)">
              <circle id="Background-16" data-name="Background" cx="7" cy="7" r="7" fill="#dde3e9"/>
              <circle id="Indicator-8" data-name="Indicator" cx="3" cy="3" r="3" transform="translate(4 4)" fill="#f2f2f2"/>
            </g>
          </g>
        </g>
      </g>
      <path id="Fill_1" data-name="Fill 1" d="M127.986,3.376C124.041.7,118.8,0,114.076,0,95.64,0,78.311,6.84,63.341,17.032a118.671,118.671,0,0,0-22.019,20.1,58.867,58.867,0,0,0-9.434,14.041A48.375,48.375,0,0,0,28.46,61.991,111.159,111.159,0,0,0,26.515,75.8c-.128,1.82-1.185,11.477,1.841,11.641a4.177,4.177,0,0,0,0,.668c-6.57,10.274-10.63,22.314-14.394,33.729A229.732,229.732,0,0,0,5.87,152.063,329.391,329.391,0,0,0,.958,193.05C.791,196,.676,198.95.577,201.9q-.126,3.779-.251,7.557c-.092,2.823-.589,6.073-.14,8.88.391,2.444,2.506,2.074,2.6-.358.113-2.937.095-5.88.223-8.82q.256-5.852.538-11.7a273.592,273.592,0,0,1,15.515-79.376,185.077,185.077,0,0,1,13.474-29.74A207.372,207.372,0,0,1,49.084,64.173c5.762-7.38,11.752-14.59,18.812-20.843A144.678,144.678,0,0,1,86.4,29.722C94.631,24.5,102.843,19.4,111.755,15.391c4.633-2.084,9.353-3.95,14.021-5.95.84-.36,1.741-.709,2.549-1.126,2.7-1.39,1.808-3.483-.34-4.939" transform="translate(560 294)" fill="#c1dee2"/>
      <path id="Fill_20" data-name="Fill 20" d="M-58.182,0c7.477,0,14.131.972,21.02,3.943A93.43,93.43,0,0,1-20.533,13.6c7.4,5.2,13.232,11.249,17.312,19.266,2.438,4.789,4.226,11.566,2.589,16.79-1.929,6.152-7.224,11.284-14.2,10.2-4.313-.67-8.267-3.525-11.545-6.212A43.659,43.659,0,0,1-36.028,42.27c-4.228-7-6.713-14.919-10.3-22.237-1.7-3.473-3.351-6.971-5.393-10.271a16.569,16.569,0,0,0-3.619-4.468c-.82-.65-4.278-1.774-2.956-3.233-19.39.255-36.568,15.147-40.291,33.58-.347,1.718-.618,3.45-.9,5.179-.181,1.092-.108,5.117-1.084,5.814-2.152,1.538-1.247-3.135-1.155-3.807q.358-2.608.76-5.211A43.366,43.366,0,0,1-88.315,12.683C-80.306,4.99-69.5,0-58.182,0" transform="translate(672 392)" fill="#89c5cc"/>
      <g id="Plant" transform="translate(65 333)">
        <path id="Fill_19" data-name="Fill 19" d="M9.938,35.736C28.6,67.052,50.345,97.374,63.4,131.613c-.526-4.036-1.084-8.067-1.708-12.093-3.313-21.341-7.43-42.526-11.757-63.685-2.2-10.773-4.534-21.507-6.924-32.241C41.727,17.829,40.457,12.061,39.145,6.3c-.318-1.4-.591-3.832-.989-6.3C50.845,41.637,63.081,83.3,72.031,125.942q1.761,8.394,2.993,16.758c.28-1.272.556-2.544.857-3.813A246.4,246.4,0,0,1,91.4,94.374a134.951,134.951,0,0,1,10.825-19.648c2.608-3.863,8.757-8.455,11.136-12.412-13.01,23.861-17.707,53.717-25.219,79.659-1.833,6.331-3.678,12.651-5.486,18.982,11.328-22.718,28.9-41.384,53.341-49.473-29.58,19.544-47.322,53.771-59.278,88.777-.039.415-.086.83-.127,1.246,3.518-6.677,7.95-12.716,13.956-16.946,12.855-9.055,27.116-6.417,39.586,1.35-9.787-6.221-27.474-.556-35.709,5.767-5.9,4.526-10.933,10.6-15.308,16.523-1.048,1.42-2.479,3.077-3.989,4.845A218.405,218.405,0,0,1,64.672,254c.807-3.889.223-10.108.447-13.007.024-.314.044-.628.068-.941q-1.114,4.449-2.152,8.784a120.22,120.22,0,0,0,2.7-17.061q.225-3.743.451-7.487-.074-7.1-.574-14.253c-1.17-4.629-2.48-8.994-3.56-12.625a163.194,163.194,0,0,0-16.646-37.36,147.491,147.491,0,0,0-22.966-29.116c-4.78-4.717-9.783-9.21-14.716-13.765-1.784-1.647-4.972-5.7-7.729-7.806,20.08,11.071,40.749,23.047,55.4,40.884q-2.576-9.892-5.556-19.468C39.831,98.454,27.191,64.953,9.938,35.736Z" fill="#dde3e9"/>
        <path id="Base" d="M0,0C0,35.9,2.843,65,41,65S82,35.9,82,0" transform="translate(30 213)" fill="#c5cfd6"/>
      </g>
      <g id="Graph" transform="translate(520 52)">
        <rect id="Value" width="6" height="25" rx="3" transform="translate(0 32)" fill="#dde3e9"/>
        <rect id="Value-2" data-name="Value" width="6" height="41" rx="3" transform="translate(14 16)" fill="#dde3e9"/>
        <rect id="Value-3" data-name="Value" width="6" height="49" rx="3" transform="translate(28 8)" fill="#dde3e9"/>
        <rect id="Value-4" data-name="Value" width="6" height="41" rx="3" transform="translate(42 16)" fill="#dde3e9"/>
        <rect id="Value-5" data-name="Value" width="6" height="57" rx="3" transform="translate(56)" fill="#c5cfd6"/>
      </g>
      <g id="Pie_Chart" data-name="Pie Chart" transform="translate(68 338) rotate(180)">
        <path id="Value-6" data-name="Value" d="M-20,20.256A20.191,20.191,0,0,1,0,0V20.256L-13.668,35A20.073,20.073,0,0,1-20,20.256Z" transform="translate(20) rotate(180)" fill="#f2f2f2"/>
        <path id="Value-7" data-name="Value" d="M-20.2,0H0A20.014,20.014,0,0,1-5.5,13.668,20.357,20.357,0,0,1-20.2,20,20.644,20.644,0,0,1-34,14.557Z" transform="translate(0.332 -20) rotate(180)" fill="#afb9c5"/>
        <path id="Value-8" data-name="Value" d="M-20,20H0a19.745,19.745,0,0,0-1.578-7.765,20.041,20.041,0,0,0-4.3-6.359,20.04,20.04,0,0,0-6.359-4.3A19.746,19.746,0,0,0-20,0V20Zm-2-2v0L-30,0A18.353,18.353,0,0,0-40,10l18,8Z" transform="rotate(180)" fill="#c5cfd6"/>
      </g>
      <g id="Chart" transform="translate(641 330)">
        <path id="Value-9" data-name="Value" d="M37.766,37.179A10.513,10.513,0,1,1,30.1,19.5V0a30,30,0,1,0,0,60A29.69,29.69,0,0,0,52,50.5Z" fill="#f2f2f2"/>
        <path id="Value-10" data-name="Value" d="M0,0V19.5A10.5,10.5,0,0,1,10.5,30H30A30.092,30.092,0,0,0,0,0Z" transform="translate(30)" fill="#afb9c5"/>
        <path id="Value-11" data-name="Value" d="M4.1,0A10.64,10.64,0,0,1,0,8.391L12.262,24A30.413,30.413,0,0,0,24,0Z" transform="translate(36 30)" fill="#c5cfd6"/>
      </g>
      <g id="Chart-2" data-name="Chart" transform="translate(459 63)">
        <path id="Value-12" data-name="Value" d="M29.051,28.5a8.074,8.074,0,1,1-5.9-13.554V0A23.146,23.146,0,0,0,0,23,23.146,23.146,0,0,0,23.15,46,22.873,22.873,0,0,0,40,38.718Z" fill="#f2f2f2"/>
        <path id="Value-13" data-name="Value" d="M0,0V14.95A8.05,8.05,0,0,1,8.05,23H23A23.071,23.071,0,0,0,0,0Z" transform="translate(23)" fill="#afb9c5"/>
        <path id="Value-14" data-name="Value" d="M3.073,0A7.98,7.98,0,0,1,0,6.293L9.2,18A22.81,22.81,0,0,0,18,0Z" transform="translate(28 23)" fill="#c5cfd6"/>
      </g>
      <g id="Image" transform="translate(76 57)">
        <path id="Fill_35" data-name="Fill 35" d="M1.007.986C1,1,1,1.006.993,1.018c.006-.01.014-.05.014-.032" transform="translate(47 51)" fill="#c5cfd6"/>
        <path id="Fill_37" data-name="Fill 37" d="M1,1a.087.087,0,0,0,0,.01C1,1,1.014.971,1,1" transform="translate(47 51)" fill="#c5cfd6"/>
        <path id="Fill_39" data-name="Fill 39" d="M1.067.832c-.014.04-.032.078-.048.118.008-.02.016-.036.024-.056-.208.52-.076.182.024-.062" transform="translate(47 51)" fill="#c5cfd6"/>
        <path id="Fill_41" data-name="Fill 41" d="M1.022.953,1,1.009c-.058.112.024-.056.024-.056" transform="translate(47 51)" fill="#c5cfd6"/>
        <path id="Fill_43" data-name="Fill 43" d="M1,1H1V1Z" transform="translate(47 51)" fill="#c5cfd6"/>
        <path id="Fill_45" data-name="Fill 45" d="M1,1S1,1,1,1,1,1,1,1" transform="translate(47 51)" fill="#c5cfd6"/>
        <path id="Fill_47" data-name="Fill 47" d="M.99,1.016c-.012.024.056-.092,0,0" transform="translate(47 51)" fill="#c5cfd6"/>
        <path id="Fill_49" data-name="Fill 49" d="M1,1,1,1S1,1,1,1" transform="translate(47 51)" fill="#c5cfd6"/>
        <rect id="Photo_Background" data-name="Photo Background" width="95" height="63" rx="4" fill="#dde3e9"/>
        <g id="icons8-night_landscape" transform="translate(8 18)">
          <path id="Mountains" d="M28,0,0,45H56Z" fill="#afb9c5"/>
          <path id="Mountains-2" data-name="Mountains" d="M24.5,0,0,33H49Z" transform="translate(31 12)" fill="#c5cfd6"/>
        </g>
        <circle id="Sun" cx="9" cy="9" r="9" transform="translate(65 12)" fill="#fff"/>
      </g>
      <g id="Image-2" data-name="Image" transform="translate(672 459) rotate(180)">
        <path id="Fill_35-2" data-name="Fill 35" d="M-1.007.986c0,.01.008.02.014.032C-1,1.008-1.007.968-1.007.986" transform="translate(70 -76) rotate(180)" fill="#c5cfd6"/>
        <path id="Fill_37-2" data-name="Fill 37" d="M-1,1a.087.087,0,0,1,0,.01C-1,1-1.014.971-1,1" transform="translate(70 -76) rotate(180)" fill="#c5cfd6"/>
        <path id="Fill_39-2" data-name="Fill 39" d="M-1.067.832c.014.04.032.078.048.118C-1.027.93-1.035.914-1.043.894c.208.52.076.182-.024-.062" transform="translate(70 -76) rotate(180)" fill="#c5cfd6"/>
        <path id="Fill_41-2" data-name="Fill 41" d="M-1.022.953-1,1.009c.058.112-.024-.056-.024-.056" transform="translate(70 -76) rotate(180)" fill="#c5cfd6"/>
        <path id="Fill_43-2" data-name="Fill 43" d="M-1,1h0V1Z" transform="translate(70 -76) rotate(180)" fill="#c5cfd6"/>
        <path id="Fill_45-2" data-name="Fill 45" d="M-1,1s0,0,0,0,0,0,0,0" transform="translate(70 -76) rotate(180)" fill="#c5cfd6"/>
        <path id="Fill_47-2" data-name="Fill 47" d="M-.99,1.016c.012.024-.056-.092,0,0" transform="translate(70 -76) rotate(180)" fill="#c5cfd6"/>
        <path id="Fill_49-2" data-name="Fill 49" d="M-1,1l0,0s0,0,0,0" transform="translate(70 -76) rotate(180)" fill="#c5cfd6"/>
        <rect id="Photo_Background-2" data-name="Photo Background" width="142" height="94" rx="4" transform="translate(142) rotate(180)" fill="#dde3e9"/>
        <g id="icons8-night_landscape-2" data-name="icons8-night_landscape" transform="translate(11 -27)">
          <path id="Mountains-3" data-name="Mountains" d="M-41.055,0,0,67H-82.11Z" transform="translate(0.671) rotate(180)" fill="#afb9c5"/>
          <path id="Mountains-4" data-name="Mountains" d="M-36.295,0,0,49.054H-72.59Z" transform="translate(47.761 -17.946) rotate(180)" fill="#c5cfd6"/>
        </g>
        <circle id="Sun-2" data-name="Sun" cx="13.5" cy="13.5" r="13.5" transform="translate(124 -18) rotate(180)" fill="#fff"/>
      </g>
    </g>
    <g id="undraw_developer_activity_bv83" transform="translate(1207 541.547)">
      <rect id="Retângulo_60" data-name="Retângulo 60" width="10.449" height="10.449" transform="translate(271.732 71.97)" fill="#89c5cc" opacity="0.2"/>
      <rect id="Retângulo_61" data-name="Retângulo 61" width="10.449" height="10.449" transform="translate(286.015 71.97)" fill="#89c5cc"/>
      <rect id="Retângulo_62" data-name="Retângulo 62" width="10.449" height="10.449" transform="translate(300.294 71.97)" fill="#89c5cc" opacity="0.2"/>
      <rect id="Retângulo_86" data-name="Retângulo 86" width="10.449" height="10.449" transform="translate(271.732 85.204)" fill="#89c5cc" opacity="0.4"/>
      <rect id="Retângulo_87" data-name="Retângulo 87" width="10.449" height="10.449" transform="translate(286.015 85.204)" fill="#89c5cc" opacity="0.2"/>
      <rect id="Retângulo_88" data-name="Retângulo 88" width="10.449" height="10.449" transform="translate(300.294 85.204)" fill="#89c5cc" opacity="0.2"/>
      <rect id="Retângulo_89" data-name="Retângulo 89" width="10.449" height="10.449" transform="translate(314.577 85.204)" fill="#89c5cc" opacity="0.2"/>
      <rect id="Retângulo_112" data-name="Retângulo 112" width="10.449" height="10.449" transform="translate(271.732 98.442)" fill="#89c5cc"/>
      <rect id="Retângulo_113" data-name="Retângulo 113" width="10.449" height="10.449" transform="translate(286.015 98.442)" fill="#89c5cc" opacity="0.2"/>
      <rect id="Retângulo_114" data-name="Retângulo 114" width="10.449" height="10.449" transform="translate(300.294 98.442)" fill="#89c5cc" opacity="0.2"/>
      <rect id="Retângulo_115" data-name="Retângulo 115" width="10.449" height="10.449" transform="translate(314.577 98.442)" fill="#89c5cc" opacity="0.2"/>
      <rect id="Retângulo_138" data-name="Retângulo 138" width="10.449" height="10.449" transform="translate(271.732 111.676)" fill="#89c5cc" opacity="0.2"/>
      <rect id="Retângulo_139" data-name="Retângulo 139" width="10.449" height="10.449" transform="translate(286.015 111.676)" fill="#89c5cc" opacity="0.2"/>
      <rect id="Retângulo_140" data-name="Retângulo 140" width="10.449" height="10.449" transform="translate(300.294 111.676)" fill="#89c5cc" opacity="0.2"/>
      <rect id="Retângulo_141" data-name="Retângulo 141" width="10.449" height="10.449" transform="translate(314.577 111.676)" fill="#89c5cc" opacity="0.2"/>
      <rect id="Retângulo_164" data-name="Retângulo 164" width="10.449" height="10.449" transform="translate(271.732 124.915)" fill="#89c5cc" opacity="0.2"/>
      <rect id="Retângulo_165" data-name="Retângulo 165" width="10.449" height="10.449" transform="translate(286.015 124.915)" fill="#89c5cc" opacity="0.2"/>
      <rect id="Retângulo_166" data-name="Retângulo 166" width="10.449" height="10.449" transform="translate(300.294 124.915)" fill="#89c5cc" opacity="0.2"/>
      <rect id="Retângulo_167" data-name="Retângulo 167" width="10.449" height="10.449" transform="translate(314.577 124.915)" fill="#89c5cc" opacity="0.2"/>
      <rect id="Retângulo_168" data-name="Retângulo 168" width="10.449" height="10.449" transform="translate(328.855 124.915)" fill="#89c5cc" opacity="0.2"/>
      <circle id="Elipse_1" data-name="Elipse 1" cx="14.283" cy="14.283" r="14.283" transform="translate(286.576 134.79)" fill="#767d9f"/>
      <path id="Caminho_6" data-name="Caminho 6" d="M760.183,445.106q2.138,9.331,3.629,18.8a10.951,10.951,0,0,1-.115,5.628,19.453,19.453,0,0,1-2.638,3.928c-.909,1.294-1.6,2.953-1.044,4.436s2.167,2.294,3.707,2.712c4.407,1.188,9.105.324,13.492-.963a21.828,21.828,0,0,0,5.657-2.343,21.168,21.168,0,0,0,4.784-4.506c6.394-7.754,10.58-17.06,14.52-26.309a16.024,16.024,0,0,1-13.562-5.464c-1.614-1.9-2.8-4.538-1.888-6.857-2.667,1.462-5.833,1.561-8.7,2.56a30.919,30.919,0,0,0-5.12,2.519q-2.941,1.7-5.849,3.465C764.836,444.05,762.759,445.237,760.183,445.106Z" transform="translate(-460.065 -314.203)" fill="#ffebd8"/>
      <path id="Caminho_7" data-name="Caminho 7" d="M744.909,468.049c-2.5,4.87-5.759,9.552-10.408,12.452s-10.908,3.686-15.565.819c-2.294-1.4-4.03-3.531-6.033-5.325s-4.506-3.33-7.2-3.1c-2.966.258-5.288,2.572-7.275,4.788a56.9,56.9,0,0,0-8.061,10.863c-4.1,7.66-5.067,16.613-4.887,25.3s1.438,17.322,1.466,26.005c.041,10.682-1.769,21.279-3.6,31.8,16.835-2.073,33.69,2.458,50.561,4.174,10.8,1.11,21.676,1.085,32.53,1.057,1.909,0,3.94-.049,5.53-1.106a7.454,7.454,0,0,0,2.29-2.72,26.026,26.026,0,0,0,2.519-9.036,182.946,182.946,0,0,0,1.122-23.79c.074-19.251.143-38.572-2.3-57.672a54.362,54.362,0,0,0-3.174-13.816,21.672,21.672,0,0,0-8.856-10.793c-2.642-1.516-8.765-4.153-11.878-2.626C748.2,457.03,746.584,464.788,744.909,468.049Z" transform="translate(-414.919 -326.422)" fill="#767d9f"/>
      <path id="Caminho_8" data-name="Caminho 8" d="M831.53,517.556c-.635-11.878-3.219-24.556,2.282-35.1,1.352-2.589-3.5-5.82-2-8.327a37.717,37.717,0,0,0,4.121-9.8,7.393,7.393,0,0,0,.266-3.625c-.545-2.167-2.687-3.457-4.506-4.776-2.007-1.458-3.039-5.9-3.686-8.307s5.149.492,7.479-.365c3.236-1.184,7.348-.438,10.576.762a17.652,17.652,0,0,0,5.681.77,74.846,74.846,0,0,0,11.178-.266,27.808,27.808,0,0,1,5-.43c4.264.242,7.971,3.158,10.494,6.607s4.129,7.467,6.2,11.2c1.724,3.113,3.781,6.054,5.251,9.294a57.226,57.226,0,0,1,2.941,9.011l2.1,7.86a10.478,10.478,0,0,1,.516,3.486A9.9,9.9,0,0,1,894.2,499.1a67.228,67.228,0,0,1-7.647,11.67c-4.42,5.419-9.785,10.306-12.411,16.794a42.42,42.42,0,0,0-2.114,7.893,289.97,289.97,0,0,0-4.465,32.42,71.351,71.351,0,0,0-14.958-5,72.745,72.745,0,0,0-7.782-1.229c-2.29-.238-5.243.213-7.422-.41-3.645-1.036-4.047-7.2-4.6-10.428a95.235,95.235,0,0,1-1.094-15.565C831.661,529.336,831.846,523.442,831.53,517.556Z" transform="translate(-500.295 -321.567)" fill="#4c4981"/>
      <path id="Caminho_9" data-name="Caminho 9" d="M590.253,557.57c1.724,9.83,3.625,19.689,7.373,28.926-.094.09-.188.172-.283.254-.332.283-.676.549-1.036.819a13.793,13.793,0,0,0-2.458,1.859,3.276,3.276,0,0,0-.614,1,2.244,2.244,0,0,0,0,1.831c-1.954.864-4.223.6-6.414.516a8.416,8.416,0,0,0-5.235,1.036c-2.105,1.45-2.74,4.235-3.08,6.767q-.188,1.384-.323,2.773-.131,1.29-.213,2.589a77.278,77.278,0,0,0-.078,8.6q.033.786.086,1.573c-6.693-.16-12.792-3.65-18.563-7.041a10.241,10.241,0,0,1-3.535-2.867,6.471,6.471,0,0,1-.946-4.215,4.653,4.653,0,0,1,.066-.623,17.028,17.028,0,0,1,.938-3.555,43.907,43.907,0,0,1,7.86-13.373c1.466-1.712,3.117-3.387,3.8-5.538.3-.938.41-1.933.713-2.867,1.36-4.047,6.267-5.96,7.946-9.888a30.015,30.015,0,0,1,1.106-2.867,7.222,7.222,0,0,1,1.741-1.946c.3-.25.61-.492.917-.733q4.317-3.383,8.319-7.148.745-.7,1.474-1.417a24.368,24.368,0,0,0,.438,5.53Z" transform="translate(-339.075 -383.794)" fill="#4c4981"/>
      <path id="Caminho_10" data-name="Caminho 10" d="M681.9,481.695c-.59.623-1.229,1.208-1.856,1.79l-.168.152-.664.614a15.975,15.975,0,0,0-3.092,3.6l-.07.115c-2.089,3.74-1.315,8.344-.733,12.591a107.122,107.122,0,0,1,.971,15.974c-.107,7.373-.975,14.7-.991,22.061q0,2.507.111,5.009c.119,2.716.324,5.427.569,8.139.266,2.974.586,5.943.885,8.913.238,2.3.463,4.592.651,6.885.094,1.188.184,2.372.258,3.559.086,1.393.156,2.789.2,4.182h0c.029.885.045,1.765.045,2.65v1.5q0,1.438-.078,2.867-.082,1.839-.25,3.686a5.976,5.976,0,0,1-1.294,3.744c-.057.057-.119.111-.18.164l-1.327-.164a136.289,136.289,0,0,0-27.566-.492c.2-1.384.385-2.765.565-4.153.082-.655.164-1.315.242-1.974q.135-1.13.258-2.261.141-1.229.262-2.458.32-3.166.561-6.336.356-4.624.541-9.265.09-2.216.139-4.436.07-2.752.066-5.509,0-2.679-.045-5.366c0-.59-.025-1.18-.074-1.765a11.2,11.2,0,0,0-.217-1.569,20.431,20.431,0,0,0-1.229-3.473c-.09-.213-.176-.41-.262-.635-.049-.111-.094-.225-.139-.336a30.634,30.634,0,0,0,5.653-7.684c2.617-4.461,5.3-9.118,5.734-14.271s-2.122-10.94-7.045-12.513a34.21,34.21,0,0,0-4.137-.766,18.175,18.175,0,0,1-5.526-1.683q-1.229,1.262-2.458,2.478a9.073,9.073,0,0,1,.889-3.568l.582.029a1.112,1.112,0,0,1-.065-.41,2.152,2.152,0,0,1,.95-1.483c1.929-1.638,4.964-2,6.181-4.219a30.773,30.773,0,0,0,1-2.986c1.176-2.757,4.551-3.772,6.582-5.976s2.54-5.325,4.182-7.782a11.723,11.723,0,0,1,4.915-4.1c.164-.078.332-.156.5-.225a28.364,28.364,0,0,1,10.961-1.778c1.368,0,4.915.041,6.652.733a2.178,2.178,0,0,1,.758.463C686.151,475.981,683.271,480.237,681.9,481.695Z" transform="translate(-389.449 -336.992)" fill="#4c4981"/>
      <path id="Caminho_11" data-name="Caminho 11" d="M631.667,541.164a24.936,24.936,0,0,1,19.145,1.995,18.108,18.108,0,0,1,7.217,6.873c2.437,4.424,2.331,9.757,2.159,14.807-.086,2.527-.2,5.145-1.311,7.414-1.29,2.626-3.723,4.428-6.205,5.9a17.3,17.3,0,0,1-5.046,2.183c-2.753.6-5.612.09-8.385-.41-3.015-.557-6.25-1.229-8.344-3.473a14.252,14.252,0,0,1-2.564-4.649q-1.43-3.584-2.867-7.16c-1.659-4.141-2.22-7.586-.029-11.62,1-1.839,2.212-3.559,3.195-5.411C629.124,546.673,630.885,541.406,631.667,541.164Z" transform="translate(-379.878 -376.748)" fill="#4c4981"/>
      <path id="Caminho_12" data-name="Caminho 12" d="M516.307,680.762v12.247a68.525,68.525,0,0,1-26.513,5.243H379.329c-.057.057-.119.111-.18.164l-1.327-.164h-196.5a85.593,85.593,0,0,1-44.294-12.026v-18.7l94.5-10.908h.074l55.034,4.661,14.242,1.229,7.4.627,15.311,1.3,7.877.668,11.469.975,1.614.135,8.266.7,11.215.922,15.77,1.335,26.288,2.232,18.493,1.569,30.368,2.576,5.775.487.623.053.541.045,7.627.647,8.372.713.971.082Z" transform="translate(-92.372 -445.538)" fill="#504f60"/>
      <path id="Caminho_13" data-name="Caminho 13" d="M586.673,543.984,468.242,523.77l-4.592,23.22,54.288,6.5,16.716,2.093,45.982-9.056Z" transform="translate(-273.739 -309.21)" fill="#9c9ca1"/>
      <path id="Caminho_14" data-name="Caminho 14" d="M642.33,723.811l59.335-11.153a2.048,2.048,0,0,1,2.433,2.019h0a2.048,2.048,0,0,1-1.675,2.019l-57.946,10.85Z" transform="translate(-390.701 -478.601)" fill="#9c9ca1"/>
      <path id="Caminho_15" data-name="Caminho 15" d="M638.608,642.877a15.305,15.305,0,0,0,5.382-1.282c2.048-1.02,3.641-2.777,5.538-4.071a16.494,16.494,0,0,1,14.529-1.606A23.4,23.4,0,0,1,675.62,645.3c1.855,2.806,3.248,6.386,1.937,9.482a12.5,12.5,0,0,1-1.688,2.638l-3.416,4.465a11.876,11.876,0,0,1-2.318,2.495,9.851,9.851,0,0,1-4.432,1.54c-4.157.606-8.389.262-12.579.541-7.2.479-14.225,2.8-21.439,2.72a64.617,64.617,0,0,1-12.288-1.716l-17.928-3.686c-3.121-.639-6.648-1.573-8.118-4.4a10.208,10.208,0,0,1-.86-4.182c-.213-3.949,0-8.339,2.736-11.186,2.572-2.671,6.64-3.514,9.712-5.489,3.76-2.421,5-1.638,8.966.18A49.152,49.152,0,0,0,638.608,642.877Z" transform="translate(-361.24 -432.741)" fill="#ae6e79"/>
      <path id="Caminho_16" data-name="Caminho 16" d="M638.608,642.877a15.305,15.305,0,0,0,5.382-1.282c2.048-1.02,3.641-2.777,5.538-4.071a16.494,16.494,0,0,1,14.529-1.606A23.4,23.4,0,0,1,675.62,645.3c1.855,2.806,3.248,6.386,1.937,9.482a12.5,12.5,0,0,1-1.688,2.638l-3.416,4.465a11.876,11.876,0,0,1-2.318,2.495,9.851,9.851,0,0,1-4.432,1.54c-4.157.606-8.389.262-12.579.541-7.2.479-14.225,2.8-21.439,2.72a64.617,64.617,0,0,1-12.288-1.716l-17.928-3.686c-3.121-.639-6.648-1.573-8.118-4.4a10.208,10.208,0,0,1-.86-4.182c-.213-3.949,0-8.339,2.736-11.186,2.572-2.671,6.64-3.514,9.712-5.489,3.76-2.421,5-1.638,8.966.18A49.152,49.152,0,0,0,638.608,642.877Z" transform="translate(-361.24 -432.741)" fill="#ffe4cb" opacity="0.97"/>
      <path id="Caminho_17" data-name="Caminho 17" d="M728.064,637.578a106.248,106.248,0,0,1-15.356,5.059c-8.831,1.946-18.072,1.638-26.833,3.862-4.628,1.18-9.228,3.08-13.984,2.7a41.907,41.907,0,0,1-6.246-1.311c-11.62-2.867-24.83-1.937-34.267,5.435a42.645,42.645,0,0,0-8.266,9.011,6.021,6.021,0,0,0,2.421,8.962,35.477,35.477,0,0,0,11.624,3.1c5.378.475,10.781-.287,16.13-1.049,7.938-1.126,15.88-2.257,23.8-3.523,2.843-.455,5.685-.926,8.544-1.286,20.574-2.6,41.521.561,62.149-1.61a18.987,18.987,0,0,0,6.1-1.4c4.8-2.253,7.176-8.192,6.185-13.41s-4.817-9.556-9.421-12.218c-3.858-2.24-8.02-3.146-12.317-4.1C734.339,634.875,731.906,636.1,728.064,637.578Z" transform="translate(-378.7 -433.058)" fill="#ffebd8"/>
      <path id="Caminho_18" data-name="Caminho 18" d="M911.328,539.261c2.269,2.974,2.753,6.963,2.507,10.686s-1.13,7.406-1.262,11.145c-.18,5.128,1.057,10.24.848,15.352a44.162,44.162,0,0,1-2,10.514c-1.184,4.051-2.9,8.405-6.635,10.351-4.964,2.585-15.376,1.13-20.6,3.154.475-2.961,5.03-7.25,5.505-10.211a19.067,19.067,0,0,0,.307-6.205,13.724,13.724,0,0,0-3.809-6.873,20.1,20.1,0,0,0-10.842-6.144c-4.157-.754-14.336-.135-17.662,2.49-.41-2.712,7.209-5.325,9.888-5.911,1.335-.3,2.867-.131,3.936-.979,2.048-1.606.561-4.8.659-7.373.078-2.048,1.274-3.924,1.516-5.972.41-3.277-1.729-6.615-.889-9.83a25.5,25.5,0,0,1,1.483-3.363c1.458-3.461.819-7.41.041-11.088-.483-2.31-.954-4.915.332-6.885,1.192-1.839,4.575,4.71,6.742,4.407,7.156-1,13.631-6.308,19.411-1.966,2.945,2.212,3.33,4.506,4.506,7.664C906.454,535.231,909.415,536.771,911.328,539.261Z" transform="translate(-517.838 -365.936)" opacity="0.1"/>
      <path id="Caminho_19" data-name="Caminho 19" d="M914.328,535.27c2.269,2.974,2.753,6.963,2.507,10.686s-1.131,7.406-1.262,11.145c-.18,5.128,1.057,10.24.848,15.352a44.162,44.162,0,0,1-2,10.514c-1.184,4.051-2.9,8.405-6.635,10.351-4.964,2.585-15.376,1.131-20.6,3.154.475-2.961,5.03-7.25,5.505-10.211a19.069,19.069,0,0,0,.307-6.205,13.725,13.725,0,0,0-3.809-6.873,20.1,20.1,0,0,0-10.842-6.144c-4.157-.754-14.336-.135-17.662,2.49-.41-2.712,7.209-5.325,9.888-5.911,1.335-.3,2.867-.131,3.936-.979,2.048-1.606.561-4.8.659-7.373.078-2.048,1.274-3.924,1.516-5.972.41-3.277-1.729-6.615-.889-9.83a25.494,25.494,0,0,1,1.483-3.363c1.458-3.461.819-7.41.041-11.088-.483-2.31-.954-4.915.332-6.885,1.192-1.839,3.523-2.535,5.689-2.843a28.025,28.025,0,0,1,20.48,5.284c2.945,2.212,3.33,4.506,4.506,7.664C909.454,531.239,912.415,532.779,914.328,535.27Z" transform="translate(-519.609 -361.944)" fill="#4c4981"/>
      <path id="Caminho_20" data-name="Caminho 20" d="M329.741,497.136l22.27,82.305a5.141,5.141,0,0,0,4.469,3.772l100.237,9.63a5.136,5.136,0,0,0,5.48-6.341L437.81,487.224a5.136,5.136,0,0,0-5.374-3.9l-98.136,7.34a5.136,5.136,0,0,0-4.559,6.468Z" transform="translate(-206.042 -343.218)" fill="#9c9ca1"/>
      <ellipse id="Elipse_2" data-name="Elipse 2" cx="11.018" cy="11.162" rx="11.018" ry="11.162" transform="translate(311.382 147.656)" fill="#fff"/>
      <path id="Caminho_21" data-name="Caminho 21" d="M829.407,479.056s2.322,6.906-4.53,9.81L824,490.4l4.293,4.235s5.292-9.654,4.719-13.083C833.011,481.55,832.192,478.069,829.407,479.056Z" transform="translate(-497.959 -340.6)" fill="#fff"/>
      <circle id="Elipse_3" data-name="Elipse 3" cx="10.625" cy="10.625" r="10.625" transform="translate(313.041 148.729)" fill="#89c5cc"/>
      <path id="Caminho_22" data-name="Caminho 22" d="M826.682,458.441l-1.687-2.785-2.458-.348c.524-9.171-1.856-11.9-1.856-11.9l-.553-.053-2.409-.233-4.53-4.7V437.08c6.365.758,9.884,3.781,11.784,7.324C828.333,450.621,826.682,458.441,826.682,458.441Z" transform="translate(-491.576 -315.921)" fill="#89c5cc"/>
      <path id="Caminho_23" data-name="Caminho 23" d="M820.179,443.588v1.688l-2.408-.233-4.53-4.7S820.248,441.909,820.179,443.588Z" transform="translate(-491.606 -317.846)" stroke="#4c4981" stroke-miterlimit="10" stroke-width="1" opacity="0.1"/>
      <path id="Caminho_24" data-name="Caminho 24" d="M843.7,469.021l-1.687-2.785V455C845.348,461.2,843.7,469.021,843.7,469.021Z" transform="translate(-508.592 -326.501)" stroke="#4c4981" stroke-miterlimit="10" stroke-width="1" opacity="0.1"/>
      <ellipse id="Elipse_4" data-name="Elipse 4" cx="5.911" cy="10.781" rx="5.911" ry="10.781" transform="translate(288.134 148.005) rotate(-30)" fill="#fff"/>
      <path id="Caminho_25" data-name="Caminho 25" d="M744.382,503.935c2.978,5.157,6.631,8.6,3.805,10.24s-11.059.819-14.037-4.342-.274-12.288,2.552-13.926S741.4,498.765,744.382,503.935Z" transform="translate(-444.146 -350.45)" fill="#89c5cc"/>
      <path id="Caminho_26" data-name="Caminho 26" d="M742.714,385.92c0,16.478-11.276,32.358-27.754,32.358a29.839,29.839,0,0,1,0-59.679C731.438,358.616,742.714,369.438,742.714,385.92Z" transform="translate(-415.964 -269.587)" opacity="0.1"/>
      <circle id="Elipse_5" data-name="Elipse 5" cx="29.839" cy="29.839" r="29.839" transform="translate(269.156 88.211)" fill="#ffebd8"/>
      <path id="Caminho_27" data-name="Caminho 27" d="M694.362,341.176c3.551,1.307,5.652,4.977,8.839,7.021,4.506,2.867,10.371,2.126,15.516.709,2.867-.782,5.865-1.737,8.688-.868a2.458,2.458,0,0,0,1.323.188c.614-.176.917-.856,1.118-1.462,3.49-10.4,1.921-22.188-3.346-31.814a20.564,20.564,0,0,0-5.235-6.607,21.838,21.838,0,0,0-5.947-3,59.4,59.4,0,0,0-11.829-2.92,7.348,7.348,0,0,0-2.159-.07,9.038,9.038,0,0,0-2.753,1.167,28.173,28.173,0,0,1-12.231,3.322c-5.734.217-12.288-1.135-16.708,2.544-5.325,4.411-4,13.017-7.451,19.005-2.286,3.961-6.693,6.836-7.418,11.346a10.473,10.473,0,0,0,.258,4.125,16.784,16.784,0,0,0,15.565,12.44,5.906,5.906,0,0,0,3.179-.651,7.189,7.189,0,0,0,1.675-1.593C680.137,348.5,685.5,337.915,694.362,341.176Z" transform="translate(-397.988 -236.348)" fill="#444053"/>
      <path id="Caminho_28" data-name="Caminho 28" d="M729.828,388.761c-.2.606-.5,1.286-1.118,1.462a2.457,2.457,0,0,1-1.323-.188c-2.822-.868-5.837.086-8.684.868-5.149,1.417-11.026,2.175-15.516-.709-3.191-2.048-5.288-5.734-8.843-7.021-8.86-3.277-14.225,7.324-18.928,12.878a7.189,7.189,0,0,1-1.675,1.593,5.906,5.906,0,0,1-3.178.651A16.828,16.828,0,0,1,655,385.857c-.094-.41-.176-.819-.238-1.229a.2.2,0,0,1-.021.107A10.473,10.473,0,0,0,655,388.86a16.788,16.788,0,0,0,15.565,12.44,5.906,5.906,0,0,0,3.178-.651,7.19,7.19,0,0,0,1.675-1.593c4.7-5.554,10.068-16.138,18.928-12.878,3.555,1.307,5.652,4.977,8.843,7.021,4.506,2.867,10.367,2.126,15.516.709,2.867-.782,5.861-1.737,8.684-.868a2.458,2.458,0,0,0,1.323.188c.614-.176.917-.856,1.118-1.462a36.982,36.982,0,0,0,1.835-13.214A36.372,36.372,0,0,1,729.828,388.761Z" transform="translate(-397.971 -281.365)" opacity="0.1"/>
    </g>
  </g>
</svg>
