<?xml version="1.0" encoding="UTF-8"?>
<svg width="134px" height="40px" viewBox="0 0 134 40" version="1.1" xmlns="http://www.w3.org/2000/svg" xmlns:xlink="http://www.w3.org/1999/xlink">
    <!-- Generator: Sketch 60.1 (88133) - https://sketch.com -->
    <title>Combined Shape</title>
    <desc>Created with Sketch.</desc>
    <g id="PORTUGUES" stroke="none" stroke-width="1" fill="none" fill-rule="evenodd">
        <g id="ICONS" transform="translate(-52.000000, -51.000000)" fill="#FEFEFE">
            <path d="M85.8408144,66.0418724 C86.5181752,66.0418724 87.0670312,66.5889175 87.0670312,67.2635298 L87.0670312,67.2635298 L87.0670312,80.3972089 C87.0670312,80.8334659 86.8333233,81.2366243 86.4540382,81.4552125 L86.4540382,81.4552125 L70.1443169,90.836576 C69.9549051,90.9457552 69.7428838,91 69.5313239,91 C69.319764,91 69.1084348,90.9457552 68.9192537,90.8370357 L68.9192537,90.8370357 L52.6141466,81.4768185 C52.2344,81.25869 52,80.8553017 52,80.4183552 L52,80.4183552 L52,67.2908821 C52,66.6162698 52.5493174,66.0692247 53.2266782,66.0692247 C53.9038082,66.0692247 54.4524335,66.6162698 54.4524335,67.2908821 L54.4524335,67.2908821 L54.4524335,79.7124832 L69.5306317,88.3677478 L84.6145977,79.6915667 L84.6145977,67.2635298 C84.6145977,66.5889175 85.1634537,66.0418724 85.8408144,66.0418724 Z M114.504249,62.2349443 C116.833714,62.2349443 118.728756,64.1229394 118.728756,66.4437437 L118.728756,66.4437437 L118.728756,69.1074855 C118.728756,71.0802956 117.356962,73.2539953 115.514291,73.7070314 L115.514291,73.7070314 L118.552033,79.5114556 C118.934087,80.2076739 118.675001,81.0815669 117.977568,81.4647283 C117.143556,81.923051 116.306545,81.4628895 116.017236,80.8923996 L116.017236,80.8923996 L112.291521,73.8336792 L109.346986,73.8336792 L109.346986,80.1295246 C109.346986,80.9231997 108.698925,81.5683911 107.902519,81.5683911 C107.105882,81.5683911 106.458052,80.9231997 106.458052,80.1295246 L106.458052,80.1295246 L106.458052,66.4437437 C106.458052,64.1229394 108.353093,62.2349443 110.682559,62.2349443 L110.682559,62.2349443 Z M142.601016,62.2491031 C143.397192,62.2491031 144.045483,62.8947542 144.045483,63.6884293 L144.045483,63.6884293 L144.045483,80.1436834 C144.045483,80.9373585 143.397192,81.5827797 142.601016,81.5827797 C141.80461,81.5827797 141.156318,80.9373585 141.156318,80.1436834 L141.156318,80.1436834 L141.156318,63.6884293 C141.156318,62.8947542 141.80461,62.2491031 142.601016,62.2491031 Z M147.915668,62.2491031 C148.430841,62.2491031 148.910715,62.5256137 149.168186,62.9708349 L149.168186,62.9708349 L155.85274,75.5898778 L155.85274,63.6884293 C155.85274,62.8947542 156.5008,62.2491031 157.297438,62.2491031 C158.093844,62.2491031 158.741905,62.8947542 158.741905,63.6884293 L158.741905,63.6884293 L158.741905,80.1436834 C158.741905,80.7943912 158.303097,81.372696 157.670032,81.5342812 C157.322354,81.6227738 156.503108,81.6556425 156.04492,80.8608181 L156.04492,80.8608181 L149.360366,68.8193904 L149.360366,80.1436834 C149.360366,80.9373585 148.712075,81.5827797 147.915668,81.5827797 C147.119492,81.5827797 146.471201,80.9373585 146.471201,80.1436834 L146.471201,80.1436834 L146.471201,63.6884293 C146.471201,62.25393 147.790163,62.2491031 147.915668,62.2491031 Z M177.218765,62.2490571 C178.014941,62.2490571 178.663232,62.8944784 178.663232,63.6881535 L178.663232,63.6881535 L178.663232,78.7043112 L184.555533,78.7043112 C185.351939,78.7043112 186,79.3501922 186,80.1438673 C186,80.9373125 185.351939,81.5827338 184.555533,81.5827338 L184.555533,81.5827338 L177.218765,81.5827338 C176.422128,81.5827338 175.774067,80.9373125 175.774067,80.1438673 L175.774067,80.1438673 L175.774067,63.6881535 C175.774067,62.8944784 176.422128,62.2490571 177.218765,62.2490571 Z M99.8104112,62.2348983 C102.139877,62.2348983 104.034918,64.1228934 104.034918,66.4436977 L104.034918,66.4436977 L104.034918,77.3597756 C104.034918,79.6805799 102.139877,81.568575 99.8104112,81.568575 L99.8104112,81.568575 L95.9887214,81.568575 C93.6592556,81.568575 91.7642143,79.6805799 91.7642143,77.3597756 L91.7642143,77.3597756 L91.7642143,66.4436977 C91.7642143,64.1228934 93.6592556,62.2348983 95.9887214,62.2348983 L95.9887214,62.2348983 Z M122.596264,62.2348524 C123.392671,62.2348524 124.040731,62.8805035 124.040731,63.6739487 L124.040731,63.6739487 L124.040731,80.1294326 C124.040731,80.9228779 123.392671,81.568529 122.596264,81.568529 C121.799858,81.568529 121.151797,80.9228779 121.151797,80.1294326 L121.151797,80.1294326 L121.151797,63.6739487 C121.151797,62.8805035 121.799858,62.2348524 122.596264,62.2348524 Z M134.50967,62.2349443 C136.838905,62.2349443 138.734407,64.1229394 138.734407,66.4439736 C138.734407,67.2371889 138.086116,67.88284 137.28971,67.88284 C136.493072,67.88284 135.845242,67.2371889 135.845242,66.4439736 C135.845242,65.7100597 135.246092,65.113137 134.50967,65.113137 L134.50967,65.113137 L130.68798,65.113137 C129.951788,65.113137 129.352407,65.7100597 129.352407,66.4439736 L129.352407,66.4439736 L129.352407,77.3598215 C129.352407,78.0932757 129.951788,78.6904283 130.68798,78.6904283 L130.68798,78.6904283 L134.50967,78.6904283 C135.246092,78.6904283 135.845242,78.0932757 135.845242,77.3598215 L135.845242,77.3598215 L135.845242,73.8166703 L132.598709,73.8166703 C131.802303,73.8166703 131.154242,73.1710192 131.154242,72.3775739 C131.154242,71.5841287 131.802303,70.9384776 132.598709,70.9384776 L132.598709,70.9384776 L137.289479,70.9382477 C137.675454,70.9382477 138.038359,71.0881105 138.311288,71.3597942 C138.583985,71.631478 138.734407,71.9930334 138.734407,72.3773441 L138.734407,72.3773441 L138.734407,77.3598215 C138.734407,79.680396 136.838905,81.5688508 134.50967,81.5688508 L134.50967,81.5688508 L130.68798,81.5688508 C128.358514,81.5688508 126.463473,79.680396 126.463473,77.3598215 L126.463473,77.3598215 L126.463473,66.4439736 C126.463473,64.1229394 128.358514,62.2349443 130.68798,62.2349443 L130.68798,62.2349443 Z M169.169823,62.249148 C171.490983,62.2475401 173.377719,64.0640516 173.379334,66.8024949 L173.379334,66.8024949 L173.379334,80.0869562 C173.379334,80.939703 172.731273,81.5582317 171.935098,81.5582317 C171.13846,81.5582317 170.49063,80.9128104 170.49063,80.1193652 L170.49063,80.1193652 L170.49063,73.8304153 L164.047628,73.8304153 L164.047628,80.1193652 C164.047628,80.9128104 163.399568,81.5582317 162.603161,81.5582317 C161.806985,81.5582317 161.158925,80.9128104 161.158925,80.1193652 L161.158925,80.1193652 L161.158925,66.443238 C161.158925,64.1302487 163.047275,62.249148 165.368436,62.249148 L165.368436,62.249148 Z M99.8104112,65.113091 L95.9887214,65.113091 C95.2522993,65.113091 94.6531487,65.7100137 94.6531487,66.4436977 L94.6531487,66.4436977 L94.6531487,77.3597756 C94.6531487,78.0932297 95.2522993,78.6903823 95.9887214,78.6903823 L95.9887214,78.6903823 L99.8104112,78.6903823 C100.546833,78.6903823 101.145984,78.0932297 101.145984,77.3597756 L101.145984,77.3597756 L101.145984,66.4436977 C101.145984,65.7100137 100.546833,65.113091 99.8104112,65.113091 L99.8104112,65.113091 Z M68.9218376,51.1641998 C69.3013534,50.9453818 69.7694614,50.9453818 70.1489772,51.1635103 L70.1489772,51.1635103 L86.4540843,60.5421156 C86.8333694,60.7604739 87.0670774,61.1638622 87.0670774,61.6001192 C87.0670774,62.036606 86.8333694,62.4399943 86.4540843,62.6583526 L86.4540843,62.6583526 L70.1445938,72.0397161 C69.9549512,72.1486654 69.7429299,72.2031401 69.5311393,72.2031401 C69.3198101,72.2031401 69.1087117,72.1486654 68.9192998,72.0401758 L68.9192998,72.0401758 L52.6141927,62.6804183 C52.2344462,62.4622898 52.0007383,62.0591314 52.0000461,61.6228744 C52.0000461,61.1863876 52.2332926,60.7827694 52.6125778,60.5641813 L52.6125778,60.5641813 Z M114.504249,65.113137 L110.682559,65.113137 C109.946137,65.113137 109.346986,65.7100597 109.346986,66.4437437 L109.346986,66.4437437 L109.346986,70.9554866 L114.504249,70.9554866 C115.240671,70.9554866 115.839821,69.8409397 115.839821,69.1074855 L115.839821,69.1074855 L115.839821,66.4437437 C115.839821,65.7100597 115.240671,65.113137 114.504249,65.113137 L114.504249,65.113137 Z M169.169823,65.1275716 L165.368436,65.1275716 C164.640319,65.1275716 164.047628,65.7175988 164.047628,66.443238 L164.047628,66.443238 L164.047628,70.9524525 L170.49063,70.9524525 L170.49063,66.443238 C170.49063,65.7175988 169.89817,65.1275716 169.169823,65.1275716 L169.169823,65.1275716 Z M69.5364456,53.6325684 L55.6791579,61.6196565 L69.5306779,69.5708879 L83.388427,61.6001192 L69.5364456,53.6325684 Z M108.731478,53.9212379 C109.832882,53.9207784 110.728262,54.7827192 110.729185,56.0825259 L110.729185,56.0825259 L110.729185,59.0018619 C110.729185,59.4068591 110.42165,59.7001488 110.04375,59.7001488 C109.665849,59.7001488 109.358314,59.3937576 109.358314,59.0172619 L109.358314,59.0172619 L109.358314,55.9119765 C109.358314,55.5676599 109.07708,55.2874717 108.731478,55.2874717 L108.731478,55.2874717 L106.927336,55.2874717 C106.581735,55.2874717 106.300501,55.5676599 106.300501,55.9119765 L106.300501,55.9119765 L106.300501,59.0172619 C106.300501,59.3937576 105.992966,59.7001488 105.615065,59.7001488 C105.237164,59.7001488 104.92963,59.3937576 104.92963,59.0172619 L104.92963,59.0172619 L104.92963,55.9119765 C104.92963,54.8144386 105.825702,53.9212379 106.927336,53.9212379 L106.927336,53.9212379 Z M102.118721,53.921445 C103.220355,53.921445 104.116659,54.8141858 104.116659,55.9117237 L104.116659,55.9117237 L104.116659,57.7091576 C104.11712,58.8066955 103.252193,59.6987467 101.947535,59.6994363 L101.947535,59.6994363 L100.251826,59.6994363 C100.175,59.6994363 100.103942,59.6854154 100.036344,59.6651885 C99.1227377,59.4973974 98.4262281,58.7092387 98.403388,57.7565068 C98.4285352,56.6817241 99.2853874,55.8163356 100.570204,55.8154162 L100.570204,55.8154162 L102.735636,55.8154162 C102.688802,55.5170698 102.431101,55.2872189 102.118721,55.2872189 L102.118721,55.2872189 L99.2930007,55.2872189 C98.9148692,55.2872189 98.6075652,54.9810575 98.6075652,54.6043319 C98.6075652,54.2278362 98.9148692,53.921445 99.2930007,53.921445 L99.2930007,53.921445 Z M116.356401,53.9218817 C116.762679,53.9218817 117.057294,54.2280431 117.057294,54.6047686 C117.057294,54.9812644 116.74976,55.2876556 116.371859,55.2876556 L116.371859,55.2876556 L113.546138,55.2876556 C113.200537,55.2876556 112.919303,55.5678438 112.919303,55.9121604 L112.919303,55.9121604 L112.919303,57.7095943 C112.919303,58.0539109 113.200537,58.3340991 113.546138,58.3340991 L113.546138,58.3340991 L116.371859,58.3340991 C116.74976,58.3340991 117.057294,58.6402605 117.057294,59.0169861 C117.057294,59.3934818 116.74976,59.699873 116.371859,59.699873 L116.371859,59.699873 L113.546138,59.699873 C112.444274,59.699873 111.548201,58.8071322 111.548201,57.7095943 L111.548201,57.7095943 L111.548201,55.9121604 C111.547509,54.8146225 112.412897,53.9225712 113.717324,53.9218817 L113.717324,53.9218817 Z M121.707436,53.9216748 C122.80907,53.9216748 123.705143,54.8144156 123.705143,55.9121834 L123.705143,55.9121834 L123.705143,57.7093874 C123.705835,58.8069253 122.840677,59.6989766 121.53625,59.699896 L121.53625,59.699896 L119.898449,59.699896 C118.797046,59.699896 117.900742,58.8071552 117.900742,57.7096173 L117.900742,57.7096173 L117.900742,55.9121834 C117.90005,54.8146455 118.765208,53.9225942 120.069635,53.9219047 L120.069635,53.9219047 Z M94.9316834,51.0495272 C95.972641,51.0495272 96.819342,51.8933098 96.819342,52.9303969 L96.819342,52.9303969 L96.819342,53.6960302 C96.819342,54.8383891 96.1269852,54.9098727 96.1269852,54.9098727 C96.1269852,54.9098727 97.7707847,55.0824907 97.7707847,56.6243304 L97.7707847,56.6243304 L97.7707847,57.8144982 C97.7707847,58.8515854 96.9240838,59.6951381 95.8831261,59.6951381 L95.8831261,59.6951381 L93.6519422,59.6953679 C92.1055017,59.6953679 91.7642835,59.2676155 91.7642835,57.8144982 L91.7642835,57.8144982 L91.7649454,52.7652108 C91.7765439,51.4273701 91.9543875,51.0495272 93.3617106,51.0495272 L93.3617106,51.0495272 Z M95.8831261,55.7660672 L95.019122,55.7660672 L94.8440141,55.7757209 L93.0553295,55.7757209 L93.0553295,57.8144982 C93.0553295,58.2843134 93.1656082,58.4091224 93.6519422,58.4091224 L93.6519422,58.4091224 L95.8831261,58.4091224 C96.2121167,58.4091224 96.4799695,58.1422656 96.4799695,57.8144982 L96.4799695,57.8144982 L96.4799695,56.5919214 C96.4799695,56.2641541 96.2121167,55.7660672 95.8831261,55.7660672 L95.8831261,55.7660672 Z M121.707436,55.2876786 L119.898449,55.2876786 C119.553078,55.2876786 119.271844,55.5676369 119.271844,55.9121834 L119.271844,55.9121834 L119.271844,57.7096173 C119.271844,58.0539339 119.553078,58.3341221 119.898449,58.3341221 L119.898449,58.3341221 L120.160995,58.3341221 L120.16261,58.3338922 L121.707436,58.3338922 C122.053038,58.3338922 122.334041,58.0539339 122.334041,57.7093874 L122.334041,57.7093874 L122.334041,55.9121834 C122.334041,55.5676369 122.053038,55.2876786 121.707436,55.2876786 L121.707436,55.2876786 Z M102.745557,57.1811901 L100.398788,57.1811901 C100.069797,57.1811901 99.8019442,57.4358649 99.7767969,57.7574262 C99.8019442,58.0789876 100.069797,58.3336624 100.398788,58.3336624 L100.398788,58.3336624 L102.118721,58.3336624 C102.464323,58.3336624 102.745557,58.0534742 102.745557,57.7091576 L102.745557,57.7091576 L102.745557,57.1811901 Z M94.9316834,52.3357727 L93.3617106,52.3357727 C92.8850664,52.3357727 93.0553295,52.4529967 93.0553295,52.9303969 L93.0553295,52.9303969 L93.0553295,54.5122307 L94.2799313,54.5122307 L94.5350951,54.5218844 L94.9316834,54.5218844 C95.260674,54.5218844 95.5282961,54.0237976 95.5282961,53.6960302 L95.5282961,53.6960302 L95.5282961,52.9303969 C95.5282961,52.6026296 95.260674,52.3357727 94.9316834,52.3357727 L94.9316834,52.3357727 Z" id="Combined-Shape"></path>
        </g>
    </g>
</svg>