<svg id="Capa_1" enable-background="new 0 0 512 512" height="512" viewBox="0 0 512 512" width="512" xmlns="https://www.w3.org/2000/svg"><g><path d="m340.853 234.787 30.926-30.926c37.834 13.481 80.683 4.17 109.521-24.668 27.446-27.446 36.487-66.428 27.132-101.479-2.968-11.119-16.942-14.776-25.079-6.639l-48.013 48.014-42.427-42.427 48.014-48.014c8.138-8.137 4.48-22.111-6.638-25.079-35.052-9.355-74.034-.314-101.48 27.132-28.839 28.839-38.149 71.687-24.669 109.522l-30.925 30.926z"/><path d="m171.147 277.213-30.925 30.925c-37.836-13.479-80.683-4.169-109.522 24.669-27.446 27.447-36.487 66.429-27.132 101.481 2.968 11.119 16.942 14.776 25.079 6.638l48.014-48.014 42.427 42.427-48.014 48.013c-8.138 8.138-4.48 22.112 6.639 25.079 35.052 9.355 74.034.314 101.479-27.132 28.839-28.839 38.149-71.687 24.669-109.521l30.926-30.926z"/><path d="m481.295 332.803c-28.839-28.839-71.686-38.148-109.522-24.669l-167.911-167.912c13.479-37.836 4.169-80.683-24.669-109.522-27.447-27.446-66.429-36.487-101.481-27.132-11.119 2.968-14.776 16.942-6.638 25.079l48.014 48.014-42.427 42.427-48.014-48.014c-8.138-8.137-22.112-4.48-25.079 6.639-9.355 35.052-.314 74.034 27.132 101.479 28.839 28.839 71.687 38.149 109.521 24.668l167.912 167.912c-13.479 37.836-4.169 80.684 24.669 109.522 40.94 40.94 107.553 40.94 148.492 0s40.941-107.552.001-148.491zm-44.295 86.623-17.574 17.574h-24.853l-17.573-17.574v-24.853l17.574-17.573h24.853l17.573 17.573z"/></g></svg>