<svg xmlns="http://www.w3.org/2000/svg" width="55" height="20" viewBox="0 0 55 20">
    <g fill="none" fill-rule="evenodd">
        <g fill="#FFFFFE">
            <g>
                <g>
                    <path d="M9.413 11.532l2.76 2.753c.508.508 1.185.787 1.904.787h.542l-3.483 3.474c-1.088 1.085-2.85 1.085-3.939 0l-3.492-3.484h.33c.72 0 1.397-.28 1.905-.787l2.75-2.743c.193-.193.53-.192.723 0zm16.694-8.63l3.332.004c2.257.005 4.093 1.84 4.093 4.091v2.78c0 2.258-1.842 4.096-4.107 4.096h-5.23c-.192 0-.347-.155-.347-.347 0-.19.155-.346.347-.346h5.23c1.881 0 3.412-1.527 3.412-3.404V6.997c0-1.87-1.525-3.394-3.4-3.398l-3.33-.005c-1.881 0-3.412 1.527-3.412 3.404V17.7c0 .192-.155.347-.347.347-.192 0-.348-.155-.348-.347V6.998c0-2.26 1.842-4.097 4.107-4.097zm-10.68 3.263l2.09 2.086c1.088 1.085 1.088 2.844 0 3.93l-2.09 2.084h-1.35c-.496 0-.982-.2-1.332-.55l-2.76-2.753c-.5-.498-1.369-.498-1.867 0l-2.75 2.743c-.35.35-.836.55-1.332.55h-1.14L.816 12.18c-1.088-1.085-1.088-2.844 0-3.93l2.08-2.075h1.14c.496 0 .982.201 1.332.551l2.75 2.743c.257.257.595.385.933.385.338 0 .676-.128.933-.384l2.76-2.754c.351-.35.837-.55 1.333-.55h1.35zM35.56 2.9c1.043 0 1.89.845 1.89 1.885v8.792c0 .191-.155.346-.347.346-.192 0-.347-.155-.347-.346V4.785c0-.657-.537-1.192-1.196-1.192h-1.445c-.192 0-.347-.155-.347-.347 0-.191.155-.346.347-.346h1.445zm11.836 5.86c.39 0 .756.152 1.031.427l3.34 3.27c.46.458 1.07.71 1.72.71h1.166c.191 0 .347.156.347.347 0 .192-.156.347-.347.347h-1.166c-.835 0-1.62-.325-2.211-.914l-3.34-3.27c-.144-.143-.336-.223-.54-.223-.205 0-.397.08-.54.224l-3.353 3.281c-.59.59-1.376.914-2.212.914h-1.433c-.192 0-.347-.155-.347-.346 0-.192.155-.347.347-.347h1.433c.65 0 1.261-.252 1.72-.71l3.353-3.283c.275-.275.642-.426 1.032-.426zm-36.26-6.875l3.483 3.474h-.542c-.72 0-1.396.28-1.905.786L9.412 8.9c-.198.198-.523.2-.722 0L5.94 6.155c-.508-.507-1.185-.786-1.904-.786h-.331l3.492-3.484C8.285.8 10.048.8 11.137 1.885zM41.291 2.9c.836 0 1.621.324 2.212.913l3.352 3.282c.144.144.336.224.54.224.205 0 .397-.08.541-.224l3.34-3.27c.59-.589 1.376-.913 2.211-.913h1.166c.191 0 .347.155.347.346 0 .192-.156.347-.347.347h-1.166c-.65 0-1.26.252-1.72.71l-3.34 3.27c-.275.275-.642.427-1.031.427-.39 0-.757-.152-1.032-.427L43.01 4.304c-.459-.459-1.07-.711-1.72-.711h-1.433c-.192 0-.347-.155-.347-.347 0-.191.155-.346.347-.346zM37.383.122l.655.653c.162.162.162.425 0 .588l-.656.654c-.162.162-.426.162-.589 0l-.655-.654c-.163-.163-.163-.426 0-.588l.655-.653c.163-.163.427-.163.59 0z" transform="translate(-1023 -43) translate(-496) translate(1519 43)"/>
                </g>
            </g>
        </g>
    </g>
</svg>
