<svg xmlns="http://www.w3.org/2000/svg" viewBox="0 0 778.9 550.76"><defs><style>.cls-1{fill:#333379;opacity:0.28;}.cls-1,.cls-10,.cls-6,.cls-9{isolation:isolate;}.cls-2{fill:#022266;}.cls-3{fill:#32fd99;}.cls-4{opacity:0.15;}.cls-10,.cls-5,.cls-6{fill:#515151;}.cls-6{opacity:0.2;}.cls-7{opacity:0.16;}.cls-8{fill:#a6ffd0;}.cls-11,.cls-9{fill:none;stroke:#022266;stroke-linecap:round;stroke-linejoin:round;stroke-width:6px;}.cls-9{opacity:0.12;}.cls-10{opacity:0.08;}.cls-12{fill:#fff;}</style></defs><title>Ativo 1</title><g id="Camada_2" data-name="Camada 2"><g id="Layer_1" data-name="Layer 1"><path class="cls-1" d="M280.79,18.31c-47.4,3.2-50.1,67.2-138,116C71.29,174,35.59,152.41,13.29,182c-57.8,76.8,82,355.3,243.5,368.3,78.4,6.3,94.6-55.4,252-94,127.3-31.2,162.2-2,208-40,107.3-89,59.3-368.3-21.5-388.3-69.2-17.2-129.5,164.5-230,150C376.49,165.21,354.29,13.31,280.79,18.31Z"/><path class="cls-2" d="M501.69,111.61c4,26.4,0,67,28.9,88.6,27.5,20.5,50.2,15.4,50.2,15.4C583.49,205.81,618.29,110,501.69,111.61Z"/><path class="cls-3" d="M658,117.81c-24.7,10-65.2,15.6-79.4,48.8a81.71,81.71,0,0,0-6.9,29.2,317.1,317.1,0,0,1-19.9,38c-20.6,32.7-38.3,41.2-52.1,41.6-28.1.8-38-32.4-108-92-47.6-40.6-75.3-63.5-118-70-56.6-8.6-100.8,17.8-107.2,21.8-12.3,7.6-47.5,29.2-60.8,70.2-26.3,81.2,54.7,156.6,63.8,164.8,38.9,35.2,81.5,45.4,105,51,15.2,3.6,68.8,15.1,135.2-1.4,38.2-9.5,111-27.6,154-96.4,22.5-36,29.1-73.5,29.6-104C624.19,218.21,680.39,205.71,658,117.81Z"/><g class="cls-4"><path class="cls-5" d="M658,117.81c-3.3,1.4-7,2.6-10.8,3.9,17.8,81-36,93.2-66,94.4-.3,30.5-6.7,68-28.9,104.1-42.5,69.1-115.3,87.6-153.4,97.4a297.31,297.31,0,0,1-106.5,7.2,295,295,0,0,0,117.3-5c38.2-9.5,111-27.6,154-96.4,22.5-36,29.1-73.5,29.6-104C624.19,218.21,680.39,205.71,658,117.81Z"/></g><ellipse class="cls-6" cx="135.69" cy="225.91" rx="11" ry="12.6"/><ellipse class="cls-6" cx="212.89" cy="213.11" rx="11.2" ry="12.9"/><g class="cls-7"><path class="cls-5" d="M153,154.61c5.4-3.3,50.5-28.9,107.2-21.8,50.7,6.4,84.5,35.7,117.3,64.2,62.9,54.6,95.2,94.5,124.2,88.7,13.6-2.7,22.3-9.8,36.6-32.4.7-1.1,1.4-2.2,2-3.3-15.7,19.5-29.5,25.1-40.6,25.4-28.1.8-38-32.4-108-92-47.6-40.6-75.3-63.5-118-70-56.6-8.6-100.8,17.8-107.2,21.8-10.4,6.4-36.9,22.7-53,52.1C128.29,169.91,145.19,159.51,153,154.61Z"/></g><path class="cls-8" d="M409.69,419.71c29.3-7.3,78.9-19.6,119.9-56-80.6,34.4-133.2,28.3-167.9,13.6-82.3-35-104.8-136.7-174-134-18.4.7-42.8,8.4-54,28-13.6,23.9-.6,52.5,1.5,57a195.31,195.31,0,0,0,34.3,41.8c37.8,34.8,79.3,44.9,105,51C289.69,424.81,343.29,436.21,409.69,419.71Z"/><path class="cls-9" d="M184.29,243.31s47,112,176.5,139"/><path class="cls-10" d="M417.89,409.91c-66.4,16.5-120,5.1-135.2,1.4-25.7-6.2-67.2-16.2-105-51a195.31,195.31,0,0,1-34.3-41.8c-2.1-4.5-15.1-33.1-1.5-57,.2-.4.5-.8.8-1.3a45.75,45.75,0,0,0-8.9,11.1c-13.6,23.9-.6,52.5,1.5,57a195.31,195.31,0,0,0,34.3,41.8c37.8,34.8,79.3,44.9,105,51,15.2,3.6,68.8,15.1,135.2-1.4,29.3-7.3,78.9-19.6,119.9-56-3,1.3-6,2.5-9,3.7C483.59,393.51,443.09,403.61,417.89,409.91Z"/><path class="cls-9" d="M135.69,273.11s19.1,73.4,99.1,114.7c59,30.5,153.3,46.7,270.9-8.5"/><path class="cls-9" d="M150.89,254s65.4,202.3,338.3,126.8"/><path class="cls-11" d="M409.69,419.71c29.3-7.3,78.9-19.6,119.9-56-80.6,34.4-133.2,28.3-167.9,13.6-82.3-35-104.8-136.7-174-134-18.4.7-42.8,8.4-54,28-13.6,23.9-.6,52.5,1.5,57a195.31,195.31,0,0,0,34.3,41.8c37.8,34.8,79.3,44.9,105,51C289.69,424.81,343.29,436.21,409.69,419.71Z"/><ellipse class="cls-2" cx="132.59" cy="225.11" rx="9.1" ry="11.8"/><ellipse class="cls-12" cx="131.19" cy="219.71" rx="3.1" ry="4.1"/><ellipse class="cls-2" cx="209.39" cy="212.11" rx="9.1" ry="11.8"/><ellipse class="cls-12" cx="208.19" cy="207.31" rx="3.3" ry="4.8"/><ellipse class="cls-12" cx="209.79" cy="218.01" rx="1.6" ry="2.4"/><ellipse class="cls-12" cx="134.29" cy="229.91" rx="1.6" ry="2.4"/><path class="cls-11" d="M658,117.81c-24.7,10-65.2,15.6-79.4,48.8a81.71,81.71,0,0,0-6.9,29.2,317.1,317.1,0,0,1-19.9,38c-20.6,32.7-38.3,41.2-52.1,41.6-28.1.8-38-32.4-108-92-47.6-40.6-75.3-63.5-118-70-56.6-8.6-100.8,17.8-107.2,21.8-12.3,7.6-47.5,29.2-60.8,70.2-26.3,81.2,54.7,156.6,63.8,164.8,38.9,35.2,81.5,45.4,105,51,15.2,3.6,68.8,15.1,135.2-1.4,38.2-9.5,111-27.6,154-96.4,22.5-36,29.1-73.5,29.6-104C624.19,218.21,680.39,205.71,658,117.81Z"/><path class="cls-3" d="M381.69,327.31s56.3,64.9,14,142c-26,26-48.8-56-48.8-82s8.8-40.7,8.8-40.7"/><path class="cls-6" d="M381.69,327.31l-1.3.9c13.9,23.8,33.1,72,3.3,126.4-6.1,6.1-12,6.3-17.5,2.6,8.3,14.9,18.7,23,29.5,12.1C438,392.21,381.69,327.31,381.69,327.31Z"/><path class="cls-11" d="M381.69,327.31s56.3,64.9,14,142c-26,26-48.8-56-48.8-82s8.8-40.7,8.8-40.7"/><path class="cls-1" d="M466.49,8.31s-41-8-41,34,66,50,84,32,49.7-48.9,32-66.6S466.49,8.31,466.49,8.31Z"/><path class="cls-1" d="M88.29,62.71c-2.3-.3-15-1.8-19.9,5.1-6.1,8.5,3.3,24.8,14.4,32.5,7.5,5.2,23.1,11.5,32.1,3.2,8.4-7.7,6.5-24.1-2.1-33.2C103.59,60.61,89.69,62.51,88.29,62.71Z"/></g></g></svg>